<svg id="visual" viewBox="0 0 900 600" width="900" height="600" xmlns="http://www.w3.org/2000/svg" xmlns:xlink="http://www.w3.org/1999/xlink" version="1.1"><rect x="0" y="0" width="900" height="600" fill="#FFFFFF"></rect><defs><linearGradient id="grad1_0" x1="33.3%" y1="0%" x2="100%" y2="100%"><stop offset="20%" stop-color="#143b84" stop-opacity="1"></stop><stop offset="80%" stop-color="#143b84" stop-opacity="1"></stop></linearGradient></defs><defs><linearGradient id="grad1_1" x1="33.3%" y1="0%" x2="100%" y2="100%"><stop offset="20%" stop-color="#143b84" stop-opacity="1"></stop><stop offset="80%" stop-color="#9296c1" stop-opacity="1"></stop></linearGradient></defs><defs><linearGradient id="grad1_2" x1="33.3%" y1="0%" x2="100%" y2="100%"><stop offset="20%" stop-color="#ffffff" stop-opacity="1"></stop><stop offset="80%" stop-color="#9296c1" stop-opacity="1"></stop></linearGradient></defs><defs><linearGradient id="grad2_0" x1="0%" y1="0%" x2="66.7%" y2="100%"><stop offset="20%" stop-color="#143b84" stop-opacity="1"></stop><stop offset="80%" stop-color="#143b84" stop-opacity="1"></stop></linearGradient></defs><defs><linearGradient id="grad2_1" x1="0%" y1="0%" x2="66.7%" y2="100%"><stop offset="20%" stop-color="#9296c1" stop-opacity="1"></stop><stop offset="80%" stop-color="#143b84" stop-opacity="1"></stop></linearGradient></defs><defs><linearGradient id="grad2_2" x1="0%" y1="0%" x2="66.7%" y2="100%"><stop offset="20%" stop-color="#9296c1" stop-opacity="1"></stop><stop offset="80%" stop-color="#ffffff" stop-opacity="1"></stop></linearGradient></defs><g transform="translate(900, 0)"><path d="M0 405.6C-16.3 369.2 -32.6 332.8 -51.2 323C-69.7 313.2 -90.6 330 -106.9 329.1C-123.2 328.1 -134.8 309.4 -158 310.1C-181.1 310.7 -215.8 330.7 -238.4 328.2C-261 325.6 -271.6 300.6 -275.8 275.8C-279.9 250.9 -277.6 226.2 -291.2 211.6C-304.9 197 -334.4 192.6 -350.2 178.4C-365.9 164.3 -367.8 140.4 -364.3 118.4C-360.7 96.3 -351.6 76.1 -357.5 56.6C-363.5 37.2 -384.6 18.6 -405.6 0L0 0Z" fill="#c8c9e0"></path><path d="M0 270.4C-10.9 246.1 -21.7 221.8 -34.1 215.3C-46.5 208.8 -60.4 220 -71.3 219.4C-82.1 218.8 -89.9 206.3 -105.3 206.7C-120.8 207.1 -143.9 220.5 -158.9 218.8C-174 217.1 -181.1 200.4 -183.8 183.8C-186.6 167.3 -185.1 150.8 -194.2 141.1C-203.2 131.3 -222.9 128.4 -233.4 118.9C-243.9 109.5 -245.2 93.6 -242.8 78.9C-240.4 64.2 -234.4 50.7 -238.4 37.8C-242.3 24.8 -256.4 12.4 -270.4 0L0 0Z" fill="#5c67a2"></path><path d="M0 135.2C-5.4 123.1 -10.9 110.9 -17.1 107.7C-23.2 104.4 -30.2 110 -35.6 109.7C-41.1 109.4 -44.9 103.1 -52.7 103.4C-60.4 103.6 -71.9 110.2 -79.5 109.4C-87 108.5 -90.5 100.2 -91.9 91.9C-93.3 83.6 -92.5 75.4 -97.1 70.5C-101.6 65.7 -111.5 64.2 -116.7 59.5C-122 54.8 -122.6 46.8 -121.4 39.5C-120.2 32.1 -117.2 25.4 -119.2 18.9C-121.2 12.4 -128.2 6.2 -135.2 0L0 0Z" fill="#143b84"></path></g><g transform="translate(0, 600)"><path d="M0 -405.6C20.1 -399.5 40.1 -393.3 61.9 -391.1C83.8 -389 107.4 -390.8 121.8 -374.7C136.1 -358.7 141.1 -324.7 161.6 -317.2C182.1 -309.7 218.2 -328.6 228.1 -313.9C238 -299.2 221.8 -250.7 234.1 -234.1C246.4 -217.4 287.2 -232.5 317.1 -230.4C347.1 -228.4 366.3 -209.2 361.4 -184.1C356.6 -159.1 327.7 -128.1 331.9 -107.8C336.1 -87.6 373.3 -78.1 391.1 -61.9C408.9 -45.8 407.3 -22.9 405.6 0L0 0Z" fill="#c8c9e0"></path><path d="M0 -270.4C13.4 -266.3 26.7 -262.2 41.3 -260.7C55.9 -259.3 71.6 -260.5 81.2 -249.8C90.7 -239.1 94.1 -216.5 107.7 -211.5C121.4 -206.5 145.4 -219.1 152 -209.3C158.6 -199.4 147.8 -167.2 156 -156C164.2 -144.9 191.4 -155 211.4 -153.6C231.4 -152.2 244.2 -139.5 240.9 -122.8C237.7 -106.1 218.5 -85.4 221.3 -71.9C224.1 -58.4 248.9 -52.1 260.7 -41.3C272.6 -30.5 271.5 -15.3 270.4 0L0 0Z" fill="#5c67a2"></path><path d="M0 -135.2C6.7 -133.2 13.4 -131.1 20.6 -130.4C27.9 -129.7 35.8 -130.3 40.6 -124.9C45.4 -119.6 47 -108.2 53.9 -105.7C60.7 -103.2 72.7 -109.5 76 -104.6C79.3 -99.7 73.9 -83.6 78 -78C82.1 -72.5 95.7 -77.5 105.7 -76.8C115.7 -76.1 122.1 -69.7 120.5 -61.4C118.9 -53 109.2 -42.7 110.6 -35.9C112 -29.2 124.4 -26 130.4 -20.6C136.3 -15.3 135.8 -7.6 135.2 0L0 0Z" fill="#143b84"></path></g></svg>