<svg width="1280" height="720" viewBox="0 0 1280 720" fill="none" xmlns="http://www.w3.org/2000/svg">
<g clip-path="url(#clip0)">
<path d="M0 370.305L30.5778 383.485C61.1556 396.548 122.311 422.909 183.182 435.266C244.196 447.623 304.782 445.975 365.796 433.265C426.667 420.555 487.822 396.548 548.693 374.777C609.707 353.005 670.293 333.47 731.307 337.354C792.178 341.237 853.333 368.775 914.204 374.659C975.218 380.543 1035.8 364.774 1096.82 354.653C1157.69 344.415 1218.84 339.707 1249.42 337.354L1280 335V721H1249.42C1218.84 721 1157.69 721 1096.82 721C1035.8 721 975.218 721 914.204 721C853.333 721 792.178 721 731.307 721C670.293 721 609.707 721 548.693 721C487.822 721 426.667 721 365.796 721C304.782 721 244.196 721 183.182 721C122.311 721 61.1556 721 30.5778 721H0V370.305Z" fill="#143B84"/>
<path d="M0 493.441L30.5778 486.648C61.1556 479.855 122.311 466.27 183.182 461.515C244.196 456.873 304.782 460.949 365.796 455.288C426.667 449.627 487.822 434.23 548.693 440.457C609.707 446.684 670.293 474.534 731.307 487.441C792.178 500.234 853.333 497.97 914.204 488.007C975.218 477.931 1035.8 460.269 1096.82 454.043C1157.69 447.816 1218.84 453.024 1249.42 455.741L1280 458.345V721H1249.42C1218.84 721 1157.69 721 1096.82 721C1035.8 721 975.218 721 914.204 721C853.333 721 792.178 721 731.307 721C670.293 721 609.707 721 548.693 721C487.822 721 426.667 721 365.796 721C304.782 721 244.196 721 183.182 721C122.311 721 61.1556 721 30.5778 721H0V493.441Z" fill="#5B66A2"/>
<path d="M0 566L30.5778 560.8C61.1556 555.7 122.311 545.3 183.182 538C244.196 530.7 304.782 526.3 365.796 532.2C426.667 538 487.822 554 548.693 556.7C609.707 559.3 670.293 548.7 731.307 550.7C792.178 552.7 853.333 567.3 914.204 566.7C975.218 566 1035.8 550 1096.82 536.8C1157.69 523.7 1218.84 513.3 1249.42 508.2L1280 503V721H1249.42C1218.84 721 1157.69 721 1096.82 721C1035.8 721 975.218 721 914.204 721C853.333 721 792.178 721 731.307 721C670.293 721 609.707 721 548.693 721C487.822 721 426.667 721 365.796 721C304.782 721 244.196 721 183.182 721C122.311 721 61.1556 721 30.5778 721H0V566Z" fill="#9296C1"/>
<path d="M0 590L30.5778 583.8C61.1556 577.7 122.311 565.3 183.182 564.7C244.196 564 304.782 575 365.796 582.2C426.667 589.3 487.822 592.7 548.693 597.2C609.707 601.7 670.293 607.3 731.307 610C792.178 612.7 853.333 612.3 914.204 610.3C975.218 608.3 1035.8 604.7 1096.82 598.3C1157.69 592 1218.84 583 1249.42 578.5L1280 574V721H1249.42C1218.84 721 1157.69 721 1096.82 721C1035.8 721 975.218 721 914.204 721C853.333 721 792.178 721 731.307 721C670.293 721 609.707 721 548.693 721C487.822 721 426.667 721 365.796 721C304.782 721 244.196 721 183.182 721C122.311 721 61.1556 721 30.5778 721H0V590Z" fill="#C8C9E0"/>
<path d="M0 661L30.5778 664.7C61.1556 668.3 122.311 675.7 183.182 674.8C244.196 674 304.782 665 365.796 658.7C426.667 652.3 487.822 648.7 548.693 652.5C609.707 656.3 670.293 667.7 731.307 666C792.178 664.3 853.333 649.7 914.204 640C975.218 630.3 1035.8 625.7 1096.82 625C1157.69 624.3 1218.84 627.7 1249.42 629.3L1280 631V721H1249.42C1218.84 721 1157.69 721 1096.82 721C1035.8 721 975.218 721 914.204 721C853.333 721 792.178 721 731.307 721C670.293 721 609.707 721 548.693 721C487.822 721 426.667 721 365.796 721C304.782 721 244.196 721 183.182 721C122.311 721 61.1556 721 30.5778 721H0V661Z" fill="white"/>
</g>
<defs>
<clipPath id="clip0">
<rect width="1280" height="600" fill="white" transform="translate(0 120)"/>
</clipPath>
</defs>
</svg>
